G75*
%MOIN*%
%OFA0B0*%
%FSLAX25Y25*%
%IPPOS*%
%LPD*%
%AMOC8*
5,1,8,0,0,1.08239X$1,22.5*
%
%ADD10R,0.93000X0.04000*%
%ADD11C,0.00100*%
%ADD12C,0.00200*%
%ADD13C,0.00300*%
%ADD14C,0.00400*%
%ADD15C,0.00500*%
%ADD16C,0.00600*%
%ADD17C,0.00700*%
%ADD18C,0.00800*%
%ADD19C,0.00900*%
%ADD20C,0.01000*%
%ADD21C,0.01100*%
%ADD22C,0.01200*%
%ADD23C,0.01300*%
%ADD24C,0.01400*%
%ADD25C,0.01500*%
%ADD26C,0.01600*%
%ADD27C,0.01700*%
%ADD28C,0.01800*%
%ADD29C,0.01900*%
%ADD30C,0.02000*%
%ADD31C,0.02100*%
%ADD32C,0.02200*%
%ADD33C,0.02300*%
%ADD34C,0.02400*%
%ADD35C,0.02500*%
D10*
X0047500Y0016600D03*
D11*
X0003000Y0016600D02*
X0003000Y0026600D01*
D12*
X0005500Y0026600D02*
X0005500Y0016600D01*
D13*
X0008100Y0016600D02*
X0008100Y0026600D01*
D14*
X0010800Y0026600D02*
X0010800Y0016600D01*
D15*
X0013600Y0016600D02*
X0013600Y0031600D01*
D16*
X0016500Y0026600D02*
X0016500Y0016600D01*
D17*
X0019500Y0016600D02*
X0019500Y0026600D01*
D18*
X0022600Y0026600D02*
X0022600Y0016600D01*
D19*
X0025800Y0016600D02*
X0025800Y0026600D01*
D20*
X0029100Y0031600D02*
X0029100Y0016600D01*
D21*
X0032500Y0016600D02*
X0032500Y0026600D01*
D22*
X0012750Y0016600D02*
X0012750Y0001600D01*
X0014450Y0001600D02*
X0014450Y0016600D01*
X0015600Y0016600D02*
X0015600Y0006600D01*
X0017400Y0006600D02*
X0017400Y0016600D01*
X0018550Y0016600D02*
X0018550Y0006600D01*
X0020450Y0006600D02*
X0020450Y0016600D01*
X0021600Y0016600D02*
X0021600Y0006600D01*
X0023600Y0006600D02*
X0023600Y0016600D01*
X0024750Y0016600D02*
X0024750Y0006600D01*
X0026850Y0006600D02*
X0026850Y0016600D01*
X0028000Y0016600D02*
X0028000Y0001600D01*
X0030200Y0001600D02*
X0030200Y0016600D01*
X0031350Y0016600D02*
X0031350Y0006600D01*
X0033650Y0006600D02*
X0033650Y0016600D01*
X0034800Y0016600D02*
X0034800Y0006600D01*
X0037200Y0006600D02*
X0037200Y0016600D01*
X0038350Y0016600D02*
X0038350Y0006600D01*
X0040850Y0006600D02*
X0040850Y0016600D01*
X0042000Y0016600D02*
X0042000Y0006600D01*
X0044600Y0006600D02*
X0044600Y0016600D01*
X0045750Y0016600D02*
X0045750Y0001600D01*
X0048450Y0001600D02*
X0048450Y0016600D01*
X0049600Y0016600D02*
X0049600Y0006600D01*
X0052400Y0006600D02*
X0052400Y0016600D01*
X0053550Y0016600D02*
X0053550Y0006600D01*
X0056450Y0006600D02*
X0056450Y0016600D01*
X0057600Y0016600D02*
X0057600Y0006600D01*
X0060600Y0006600D02*
X0060600Y0016600D01*
X0061750Y0016600D02*
X0061750Y0006600D01*
X0064850Y0006600D02*
X0064850Y0016600D01*
X0066000Y0016600D02*
X0066000Y0001600D01*
X0069200Y0001600D02*
X0069200Y0016600D01*
X0070350Y0016600D02*
X0070350Y0006600D01*
X0073650Y0006600D02*
X0073650Y0016600D01*
X0074800Y0016600D02*
X0074800Y0006600D01*
X0078200Y0006600D02*
X0078200Y0016600D01*
X0079350Y0016600D02*
X0079350Y0006600D01*
X0082850Y0006600D02*
X0082850Y0016600D01*
X0084000Y0016600D02*
X0084000Y0006600D01*
X0087600Y0006600D02*
X0087600Y0016600D01*
X0088750Y0016600D02*
X0088750Y0001600D01*
X0092450Y0001600D02*
X0092450Y0016600D01*
X0036000Y0016600D02*
X0036000Y0026600D01*
X0011600Y0016600D02*
X0011600Y0006600D01*
X0010000Y0006600D02*
X0010000Y0016600D01*
X0008850Y0016600D02*
X0008850Y0006600D01*
X0007350Y0006600D02*
X0007350Y0016600D01*
X0006200Y0016600D02*
X0006200Y0006600D01*
X0004800Y0006600D02*
X0004800Y0016600D01*
X0003650Y0016600D02*
X0003650Y0006600D01*
X0002350Y0006600D02*
X0002350Y0016600D01*
D23*
X0039600Y0016600D02*
X0039600Y0026600D01*
D24*
X0043300Y0026600D02*
X0043300Y0016600D01*
D25*
X0047100Y0016600D02*
X0047100Y0031600D01*
D26*
X0051000Y0026600D02*
X0051000Y0016600D01*
D27*
X0055000Y0016600D02*
X0055000Y0026600D01*
D28*
X0059100Y0026600D02*
X0059100Y0016600D01*
D29*
X0063300Y0016600D02*
X0063300Y0026600D01*
D30*
X0067600Y0031600D02*
X0067600Y0016600D01*
D31*
X0072000Y0016600D02*
X0072000Y0026600D01*
D32*
X0076500Y0026600D02*
X0076500Y0016600D01*
D33*
X0081100Y0016600D02*
X0081100Y0026600D01*
D34*
X0085800Y0026600D02*
X0085800Y0016600D01*
D35*
X0090600Y0016600D02*
X0090600Y0031600D01*
M02*
